<?xml version="1.0"?><svg fill="#000000" xmlns="http://www.w3.org/2000/svg"  viewBox="0 0 24 24" width="20px" height="20px">    <path d="M 10.5 3 C 5.9256807 3 2 6.010482 2 10 C 2 11.385827 2.5569594 12.638991 3.375 13.705078 L 2.9160156 18.826172 L 6.6015625 16.158203 C 7.7060261 16.633189 8.9230851 16.945042 10.234375 16.984375 C 10.95876 19.304917 13.307758 20.960937 16 20.960938 C 16.852682 20.960938 17.602497 20.688951 18.326172 20.396484 L 22.095703 21.947266 L 21.388672 17.585938 C 21.701329 16.93552 22 16.260453 22 15.480469 C 22 13.411909 20.752881 11.650973 18.951172 10.716797 C 18.98044 10.480561 19 10.241964 19 10 C 19 6.010482 15.074319 3 10.5 3 z M 10.5 5 C 14.209681 5 17 7.361518 17 10 C 17 10.027948 16.99278 10.054208 16.992188 10.082031 C 16.66774 10.031962 16.337618 10 16 10 C 12.93585 10 10.311131 12.143328 10.027344 14.972656 C 8.8715374 14.906887 7.8011259 14.618719 6.8984375 14.152344 L 6.3515625 13.869141 L 5.2988281 14.632812 L 5.4316406 13.136719 L 5.1445312 12.814453 C 4.4058415 11.987323 4 11.031615 4 10 C 4 7.361518 6.7903193 5 10.5 5 z M 7.828125 6.6152344 C 7.180125 6.6152344 6.65625 7.1439219 6.65625 7.7949219 C 6.65625 8.4469219 7.180125 9 7.828125 9 C 8.476125 9 9 8.4459219 9 7.7949219 C 9 7.1439219 8.476125 6.6152344 7.828125 6.6152344 z M 13.197266 6.6152344 C 12.549266 6.6152344 12 7.1439219 12 7.7949219 C 12 8.4469219 12.548266 9 13.197266 9 C 13.845266 9 14.369141 8.4469219 14.369141 7.7949219 C 14.369141 7.1439219 13.844266 6.6152344 13.197266 6.6152344 z M 16 12 C 18.276634 12 20 13.60981 20 15.480469 C 20 16.045675 19.829186 16.57591 19.523438 17.082031 L 19.333984 17.396484 L 19.392578 17.759766 L 19.550781 18.736328 L 18.402344 18.263672 L 17.994141 18.472656 C 17.393918 18.77773 16.724723 18.960938 16 18.960938 C 13.723366 18.960938 12 17.351127 12 15.480469 C 12 13.60981 13.723366 12 16 12 z M 14.021484 14 C 13.469484 14 13 14.447 13 15 C 13 15.553 13.472484 16 14.021484 16 C 14.570484 16 15.015625 15.553 15.015625 15 C 15.015625 14.447 14.571484 14 14.021484 14 z M 17.992188 14 A 0.99299997 1 0 0 0 17 15 A 0.99299997 1 0 0 0 17.992188 16 A 0.99299997 1 0 0 0 18.986328 15 A 0.99299997 1 0 0 0 17.992188 14 z"/></svg>